# xmcd
# 
# Track frame offsets:
#     150
#     53003
#     109046
#     164599
#     165242
#     166792
#     168332
#     169859
#     171825
#     174027
#     176278
#     181341
#     186782
#     189419
#     191829
#     196100
#     203925
#     209453
#     211622
#     214877
#     220199
#     226991
#     235844
#     248487
#     250453
#     253115
#     255030
#     262490
#     266378
# 
# Disc length: 3634
# 
# Revision: 1
# Processed by: cddbd v1.5.2PL0 Copyright (c) Steve Scherf et al.
# Submitted via: fre:ac v1.1beta1pre4
# 
DISCID=8f0e301d
DTITLE=Lang Lang - Lang Lang - It's me [CD2)
DYEAR=2005
DGENRE=Classical
TTITLE0=(Sergei Rachmaninoff) Concerto for Piano and Orchestra No. 2 in c-moll, Op. 18 - I
TTITLE1=(Sergei Rachmaninoff) Concerto for Piano and Orchestra No. 2 in c-moll, Op. 18 - II
TTITLE2=(Sergei Rachmaninoff) Concerto for Piano and Orchestra No. 2 in c-moll, Op. 18 - III
TTITLE3=(Niccolò Paganini) Rhapsody on a Theme of Paganini, Op. 43 - Introduction. Allegro vivace
TTITLE4=(Niccolò Paganini) Rhapsody on a Theme of Paganini, Op. 43 - Variation I. (Precedente)
TTITLE5=(Niccolò Paganini) Rhapsody on a Theme of Paganini, Op. 43 - Tema. L'istesso tempo
TTITLE6=(Niccolò Paganini) Rhapsody on a Theme of Paganini, Op. 43 - Variation II. L'istesso tempo
TTITLE7=(Niccolò Paganini) Rhapsody on a Theme of Paganini, Op. 43 - Variation III. L'istesso tempo
TTITLE8=(Niccolò Paganini) Rhapsody on a Theme of Paganini, Op. 43 - Variation IV. Più vivo
TTITLE9=(Niccolò Paganini) Rhapsody on a Theme of Paganini, Op. 43 - Variation V. Tempo precedente
TTITLE10=(Niccolò Paganini) Rhapsody on a Theme of Paganini, Op. 43 - Variation VI. L'istesso tempo
TTITLE11=(Niccolò Paganini) Rhapsody on a Theme of Paganini, Op. 43 - Variation VII. Meno mosso, a tempo moderato
TTITLE12=(Niccolò Paganini) Rhapsody on a Theme of Paganini, Op. 43 - Variation VIII. Tempo I
TTITLE13=(Niccolò Paganini) Rhapsody on a Theme of Paganini, Op. 43 - Variation IX. L'istesso tempo
TTITLE14=(Niccolò Paganini) Rhapsody on a Theme of Paganini, Op. 43 - Variation X.
TTITLE15=(Niccolò Paganini) Rhapsody on a Theme of Paganini, Op. 43 - Variation XI. Moderato
TTITLE16=(Niccolò Paganini) Rhapsody on a Theme of Paganini, Op. 43 - Variation XII. Tempo di minuetto
TTITLE17=(Niccolò Paganini) Rhapsody on a Theme of Paganini, Op. 43 - Variation XIII. Allegro
TTITLE18=(Niccolò Paganini) Rhapsody on a Theme of Paganini, Op. 43 - Variation XIV. L'istesso tempo
TTITLE19=(Niccolò Paganini) Rhapsody on a Theme of Paganini, Op. 43 - Variation XV. Più vivo. Scherzando
TTITLE20=(Niccolò Paganini) Rhapsody on a Theme of Paganini, Op. 43 - Variation XVI. Allegretto
TTITLE21=(Niccolò Paganini) Rhapsody on a Theme of Paganini, Op. 43 - Variation XVII.
TTITLE22=(Niccolò Paganini) Rhapsody on a Theme of Paganini, Op. 43 - Variation XVIII. Andante cantabile
TTITLE23=(Niccolò Paganini) Rhapsody on a Theme of Paganini, Op. 43 - Variation XIX. A tempo vivace
TTITLE24=(Niccolò Paganini) Rhapsody on a Theme of Paganini, Op. 43 - Variation XX. Un poco più vivo
TTITLE25=(Niccolò Paganini) Rhapsody on a Theme of Paganini, Op. 43 - Variation XXI. Un poco più vivo
TTITLE26=(Niccolò Paganini) Rhapsody on a Theme of Paganini, Op. 43 - Variation XXII. Un poco più vivo (alla breve)
TTITLE27=(Niccolò Paganini) Rhapsody on a Theme of Paganini, Op. 43 - Variation XXIII. L'istesso tempo
TTITLE28=(Niccolò Paganini) Rhapsody on a Theme of Paganini, Op. 43 - Variation XXIV. A tempo un poco meno mosso
EXTD=
EXTT0=
EXTT1=
EXTT2=
EXTT3=
EXTT4=
EXTT5=
EXTT6=
EXTT7=
EXTT8=
EXTT9=
EXTT10=
EXTT11=
EXTT12=
EXTT13=
EXTT14=
EXTT15=
EXTT16=
EXTT17=
EXTT18=
EXTT19=
EXTT20=
EXTT21=
EXTT22=
EXTT23=
EXTT24=
EXTT25=
EXTT26=
EXTT27=
EXTT28=
PLAYORDER=
